<svg width="24721" height="27478" viewBox="0 0 24721 27478" fill="none" xmlns="http://www.w3.org/2000/svg">
<circle cx="19725" cy="19984" r="2498" fill="black"/>
<circle cx="17227" cy="17486" r="2498" fill="#363636"/>
<circle cx="19473" cy="14988" r="2498" fill="white"/>
<circle cx="22223" cy="17486" r="2498" fill="#737373"/>
<circle cx="9733" cy="19984" r="2498" fill="black"/>
<circle cx="7235" cy="17486" r="2498" fill="#737373"/>
<circle cx="9481" cy="14988" r="2498" fill="white"/>
<circle cx="12231" cy="17486" r="2498" fill="#737373"/>
<circle cx="14988" cy="24980" r="2498" fill="black"/>
<circle cx="12490" cy="22482" r="2498" fill="#363636"/>
<circle cx="14736" cy="19984" r="2498" fill="white"/>
<circle cx="17486" cy="22482" r="2498" fill="#737373"/>
<circle cx="4996" cy="24980" r="2498" fill="black"/>
<circle cx="2498" cy="22482" r="2498" fill="#737373"/>
<circle cx="4744" cy="19984" r="2498" fill="white"/>
<circle cx="7494" cy="22482" r="2498" fill="#737373"/>
<circle cx="19725" cy="7494" r="2498" fill="black"/>
<circle cx="17227" cy="4996" r="2498" fill="#363636"/>
<circle cx="19473" cy="2498" r="2498" fill="#FBE7CF"/>
<circle cx="22223" cy="4996" r="2498" fill="#737373"/>
<circle cx="9733" cy="7494" r="2498" fill="black"/>
<circle cx="7235" cy="4996" r="2498" fill="#737373"/>
<circle cx="9481" cy="2498" r="2498" fill="#FBE7CF"/>
<circle cx="12231" cy="4996" r="2498" fill="#737373"/>
<circle cx="14988" cy="12490" r="2498" fill="black"/>
<circle cx="12490" cy="9992" r="2498" fill="#363636"/>
<circle cx="14736" cy="7494" r="2498" fill="#FBE7CF"/>
<circle cx="17486" cy="9992" r="2498" fill="#737373"/>
<circle cx="4996" cy="12490" r="2498" fill="black"/>
<circle cx="2498" cy="9992" r="2498" fill="#737373"/>
<circle cx="4744" cy="7494" r="2498" fill="#FBE7CF"/>
<circle cx="7494" cy="9992" r="2498" fill="#737373"/>
</svg>
